{"accessors":[{"bufferView":0,"byteOffset":0,"componentType":5126,"count":2865,"max":[1.367188,0.984375,0.851563],"min":[-1.367187,-0.984375,-0.851562],"normalized":false,"type":"VEC3"},{"bufferView":1,"byteOffset":0,"componentType":5126,"count":2865,"max":[0.999969,0.999472,0.992442,1],"min":[-0.958073,-0.999318,-0.989235,1],"normalized":false,"type":"VEC4"},{"bufferView":2,"byteOffset":0,"componentType":5126,"count":2865,"max":[1,1,1],"min":[-1,-0.994846,-0.992442],"normalized":false,"type":"VEC3"},{"bufferView":3,"byteOffset":0,"componentType":5126,"count":2865,"max":[0.999512,0.999512],"min":[0.000144,0.095093],"normalized":false,"type":"VEC2"},{"bufferView":4,"byteOffset":0,"componentType":5126,"count":2865,"max":[0.997559,1],"min":[0,1],"normalized":false,"type":"VEC2"},{"bufferView":5,"byteOffset":0,"componentType":5125,"count":2901,"max":[2864],"min":[0],"normalized":false,"type":"SCALAR"},{"bufferView":6,"byteOffset":0,"componentType":5126,"count":24,"max":[1,1,1],"min":[-1,-1,-1],"normalized":false,"type":"VEC3"},{"bufferView":7,"byteOffset":0,"componentType":5126,"count":24,"max":[0.999969,1,0,1],"min":[-0.999969,0,-0.007936,1],"normalized":false,"type":"VEC4"},{"bufferView":8,"byteOffset":0,"componentType":5126,"count":24,"max":[1,1,1],"min":[-1,-1,-1],"normalized":false,"type":"VEC3"},{"bufferView":9,"byteOffset":0,"componentType":5126,"count":24,"max":[0.875,1],"min":[0.125,0],"normalized":false,"type":"VEC2"},{"bufferView":10,"byteOffset":0,"componentType":5125,"count":36,"max":[23],"min":[0],"normalized":false,"type":"SCALAR"}],"asset":{"generator":"Godot Engine v3.5.1.stable.official@6fed1ffa313c6760fa88b368ae580378daaef0f0","version":"2.0"},"bufferViews":[{"buffer":0,"byteLength":34380,"byteOffset":0},{"buffer":0,"byteLength":45840,"byteOffset":34380},{"buffer":0,"byteLength":34380,"byteOffset":80220},{"buffer":0,"byteLength":22920,"byteOffset":114600},{"buffer":0,"byteLength":22920,"byteOffset":137520},{"buffer":0,"byteLength":11604,"byteOffset":160440},{"buffer":0,"byteLength":288,"byteOffset":172044},{"buffer":0,"byteLength":384,"byteOffset":172332},{"buffer":0,"byteLength":288,"byteOffset":172716},{"buffer":0,"byteLength":192,"byteOffset":173004},{"buffer":0,"byteLength":144,"byteOffset":173196}],"buffers":[{"byteLength":173340,"uri":"MeshHou0.bin"}],"extensionsRequired":["KHR_texture_transform"],"extensionsUsed":["KHR_lights_punctual","KHR_texture_transform"],"meshes":[{"extras":{"targetNames":[]},"primitives":[{"attributes":{"NORMAL":2,"POSITION":0,"TANGENT":1,"TEXCOORD_0":3,"TEXCOORD_1":4},"indices":5,"mode":4}]},{"extras":{"targetNames":[]},"primitives":[{"attributes":{"NORMAL":8,"POSITION":6,"TANGENT":7,"TEXCOORD_0":9},"indices":10,"mode":4}]}],"nodes":[{"children":[1,2,3],"extensions":{},"name":"hou"},{"extensions":{},"mesh":0,"name":"猴头"},{"extensions":{},"mesh":1,"name":"立方体","translation":[0,-2.207901,0]},{"extensions":{},"name":"AnimationPlayer"}],"scene":0,"scenes":[{"nodes":[0]}]}