{"accessors":[{"bufferView":0,"byteOffset":0,"componentType":5126,"count":130,"max":[332,453,0],"min":[-332,-453,0],"normalized":false,"type":"VEC3"},{"bufferView":1,"byteOffset":0,"componentType":5126,"count":130,"max":[1,1],"min":[0,0],"normalized":false,"type":"VEC2"},{"bufferView":2,"byteOffset":0,"componentType":5125,"count":384,"max":[129],"min":[0],"normalized":false,"type":"SCALAR"}],"asset":{"generator":"Godot Engine v3.5.1.stable.official@6fed1ffa313c6760fa88b368ae580378daaef0f0","version":"2.0"},"bufferViews":[{"buffer":0,"byteLength":1560,"byteOffset":0},{"buffer":0,"byteLength":1040,"byteOffset":1560},{"buffer":0,"byteLength":1536,"byteOffset":2600}],"buffers":[{"byteLength":4136,"uri":"VAT0.bin"}],"extensionsRequired":["KHR_texture_transform"],"extensionsUsed":["KHR_lights_punctual","KHR_texture_transform"],"meshes":[{"extras":{"targetNames":[]},"primitives":[{"attributes":{"POSITION":0,"TEXCOORD_0":1},"indices":2,"mode":4}]}],"nodes":[{"children":[1,2,3],"extensions":{},"name":"VAT"},{"extensions":{},"name":"MeshInstance2D"},{"extensions":{},"name":"Yumao"},{"extensions":{},"mesh":0,"name":"MeshInstance"}],"scene":0,"scenes":[{"nodes":[0]}]}